<svg xmlns="http://www.w3.org/2000/svg" xmlns:xlink="http://www.w3.org/1999/xlink" version="1.1" id="Layer_1" x="0px" y="0px" width="100px" height="100px" viewBox="0 0 100 100" enable-background="new 0 0 100 100" xml:space="preserve">
<g>
	<path d="M75.474,23.12C69.667,11.434,57.798,7.468,50.363,7.468c-7.436,0-19.332,3.966-25.139,15.651   c-5.807,11.686-1.13,22.522,4.536,29.746c5.666,7.224,6.515,10.412,6.869,12.182c0.354,1.771-0.781,4.533,1.383,6.444   c2.165,1.914,12.351,2.197,12.351,2.197s10.154-0.283,12.318-2.197c2.165-1.911,1.014-4.674,1.368-6.444   c0.354-1.77,1.194-4.958,6.86-12.182C76.577,45.642,81.281,34.806,75.474,23.12z"/>
	<path d="M63.455,75.46C63.178,74.295,62,73.525,61,73.758v-0.009c-4,1.058-10.496,1.043-10.496,1.043s-5.912,0.015-10.423-1.043   l-0.041,0.009c-1.336-0.232-2.35,0.537-2.628,1.702c-0.29,1.218,0.415,2.432,1.633,2.723c0.104,0.023,0.202,0.042,0.306,0.051   c5.022,1.099,10.751,1.078,11,1.076c0.248,0.002,5.976,0.023,10.996-1.075c0.104-0.01,0.285-0.028,0.389-0.052   C62.953,77.892,63.745,76.678,63.455,75.46z"/>
	<path d="M63.351,81.407c-0.277-1.165-1.273-1.933-2.609-1.699l-0.003-0.009c-4.511,1.058-10.339,1.042-10.339,1.042   s-5.834,0.016-10.344-1.042l-0.003,0.009c-1.336-0.233-2.331,0.534-2.61,1.699c-0.289,1.218,0.426,2.434,1.643,2.723   c0.105,0.025,0.209,0.044,0.313,0.053c5.021,1.101,10.751,1.079,11.001,1.076c0.248,0.003,5.977,0.024,10.998-1.076   c0.103-0.009,0.207-0.027,0.31-0.053C62.925,83.841,63.641,82.625,63.351,81.407z"/>
	<path d="M61.433,87.527C61.077,86.544,60,85.838,59,86.041v-0.006c-3,0.923-8.816,0.885-8.816,0.885s-4.942,0.038-8.886-0.885   l0.042,0.006c-1.169-0.203-1.91,0.503-2.267,1.486c-0.868,2.399,4.305,5.61,11.177,5.61C57.169,93.138,62.3,89.927,61.433,87.527z"/>
</g>
</svg>