<svg xmlns="http://www.w3.org/2000/svg" xmlns:xlink="http://www.w3.org/1999/xlink" version="1.0" x="0px" y="0px" width="100px" height="100px" viewBox="0 0 100 100" overflow="" enable-background="new 0 0 100 100" xml:space="preserve">
    <path d="M87.989,14.304H43.423H27.825c-5.898,0-10.677,4.779-10.677,10.682v0.009h-5.435 c-3.706,0-6.969,1.894-8.884,4.766C1.676,31.462,1,33.523,1,35.735v0.004V68.34c0,11.236,5.188,18.838,17.81,18.838h69.18 c5.899,0,10.673-4.787,10.673-10.681V24.986C98.662,19.083,93.889,14.304,87.989,14.304z M12.537,75.321 c-2.543,0-4.606-2.072-4.606-4.621V35.348c0.345-1.552,1.733-2.721,3.395-2.721h5.822v7.883h-4.387v4.736h4.387v6.242h-4.387v4.738 h4.387v6.24h-4.387v4.741h4.387V70.7C17.148,73.249,15.086,75.321,12.537,75.321z M91.859,72.901h-0.018 c0,4.271-3.462,7.738-7.74,7.738l-0.004,0.018H18.873c4.111-0.18,7.392-3.561,7.392-7.722l0.013-47.523 c0-1.922,1.561-3.479,3.48-3.479H88.38c1.916,0,3.479,1.557,3.479,3.479V72.901z"/>
    <rect x="33.251" y="28.686" width="22.357" height="29.443"/>
    <rect x="62.636" y="28.529" width="22.35" height="4.512"/>
    <rect x="62.636" y="41.103" width="22.35" height="4.512"/>
    <rect x="62.636" y="53.672" width="22.35" height="4.512"/>
    <rect x="33.157" y="66.244" width="51.828" height="4.515"/>
</svg>