<svg xmlns="http://www.w3.org/2000/svg" xmlns:xlink="http://www.w3.org/1999/xlink" version="1.1" id="Layer_1" x="0px" y="0px" width="100px" height="68.75px" viewBox="0 0 100 68.75" enable-background="new 0 0 100 68.75" xml:space="preserve">
<g>
	<path d="M87.5,47.065V6.375c0-3.446-2.804-6.25-6.25-6.25h-62.5c-3.446,0-6.25,2.804-6.25,6.25v40.69L0,57.481v0.977   c0,4.753,2.169,10.417,12.5,10.417h75c10.331,0,12.5-5.664,12.5-10.417v-0.977L87.5,47.065z M15.34,50.125h69.32l7.501,6.25   l-32.603,0.006l-0.608,0.599c-0.606,0.596-1.885,1.479-2.7,1.479h-12.5c-0.816,0-2.094-0.883-2.694-1.473l-0.61-0.61H7.839   L15.34,50.125z M18.75,4.292h62.5c1.149,0,2.083,0.934,2.083,2.083v39.583H16.667V6.375C16.667,5.226,17.601,4.292,18.75,4.292z    M87.5,64.708h-75c-5.707,0-7.579-1.827-8.126-4.166h34.42c0.98,0.804,2.873,2.083,4.956,2.083h12.5   c2.083,0,3.976-1.279,4.956-2.083h34.42C95.078,62.881,93.207,64.708,87.5,64.708z"/>
	<path d="M35.417,39.708h29.167c3.446,0,6.25-2.804,6.25-6.25V16.792c0-2.297-1.869-4.167-4.166-4.167h-25   c-2.297,0-4.167,1.87-4.167,4.167v2.083h-4.167c-2.297,0-4.167,1.87-4.167,4.167v10.417C29.167,36.904,31.97,39.708,35.417,39.708z    M66.667,16.792v16.667c0,1.149-0.935,2.083-2.084,2.083H41.282c0.234-0.655,0.384-1.349,0.384-2.083V16.792H66.667z    M33.333,23.042H37.5v10.417c0,1.149-0.934,2.083-2.083,2.083c-1.149,0-2.083-0.934-2.083-2.083V23.042z"/>
	<path d="M45.833,23.042H50c1.151,0,2.083-0.932,2.083-2.083c0-1.152-0.932-2.083-2.083-2.083h-4.167   c-1.152,0-2.083,0.932-2.083,2.083C43.75,22.11,44.682,23.042,45.833,23.042z"/>
	<path d="M45.833,29.292H50c1.151,0,2.083-0.932,2.083-2.083c0-1.152-0.932-2.083-2.083-2.083h-4.167   c-1.152,0-2.083,0.932-2.083,2.083C43.75,28.36,44.682,29.292,45.833,29.292z"/>
	<rect x="54.167" y="18.875" width="10.416" height="10.417"/>
</g>
</svg>