<svg xmlns="http://www.w3.org/2000/svg" xmlns:xlink="http://www.w3.org/1999/xlink" version="1.1" id="Layer_1" x="0px" y="0px" width="100px" height="100px" viewBox="0 0 100 100" enable-background="new 0 0 100 100" xml:space="preserve">
<g id="Your_Icon">
	<path d="M85,97.624H12.061V13.601L64.754,2v10.33H85V97.624z M17.419,92.266h62.224V17.688H59.396V8.667l-41.978,9.24V92.266z"/>
	<polygon points="15.18,97.587 14.301,92.302 59.396,84.785 59.396,15.009 64.754,15.009 64.754,89.325  "/>
	<rect x="62.076" y="25.43" width="12.803" height="3.574"/>
	<rect x="62.076" y="32.575" width="12.803" height="3.572"/>
	<rect x="62.076" y="40.167" width="12.803" height="3.572"/>
	<rect x="62.076" y="47.859" width="12.803" height="3.573"/>
	<rect x="62.076" y="55.792" width="12.803" height="3.572"/>
	<rect x="62.076" y="62.938" width="12.803" height="3.572"/>
	<rect x="62.076" y="70.529" width="12.803" height="3.572"/>
	<rect x="62.076" y="78.221" width="12.803" height="3.571"/>
	<polygon points="24.066,33.963 24.072,30.457 49.527,25.463 49.536,29.003  "/>
</g>
</svg>