<svg xmlns="http://www.w3.org/2000/svg" xmlns:xlink="http://www.w3.org/1999/xlink" version="1.1" id="Your_Icon" x="0px" y="0px" width="100px" height="100px" viewBox="0 0 100 100" enable-background="new 0 0 100 100" xml:space="preserve">
<rect x="13" y="52" fill="none" width="30" height="5"/>
<rect x="13" y="62" fill="none" width="30" height="4"/>
<rect x="13" y="71" fill="none" width="30" height="5"/>
<rect x="13" y="80" fill="none" width="30" height="5"/>
<ellipse fill="none" cx="68.642" cy="64.492" rx="18.376" ry="18.413"/>
<rect x="13" y="43" fill="none" width="30" height="5"/>
<path d="M98.918,35.015C98.404,31.597,95.459,29,91.906,29H8.095c-3.554,0-6.499,2.597-7.012,6.015C1.031,35.363,1,35.696,1,36.057  v55.839c0,0.362,0.031,0.718,0.083,1.066C1.597,96.379,4.541,99,8.095,99h83.81c3.553,0,6.499-2.621,7.012-6.038  C98.97,92.614,99,92.258,99,91.896V36.057C99,35.696,98.97,35.363,98.918,35.015z M43,85H13v-5h30V85z M43,76H13v-5h30V76z M43,66  H13v-4h30V66z M43,57H13v-5h30V57z M43,48H13v-5h30V48z M68.642,82.905c-10.15,0-18.376-8.244-18.376-18.413  c0-10.17,8.226-18.414,18.376-18.414c10.148,0,18.374,8.244,18.374,18.414C87.016,74.661,78.79,82.905,68.642,82.905z"/>
<path d="M69.456,24h17.856l-7.783-6.951c0,0-54.15-16.105-66.257-16.105l-1.853,1.522l1.449,2.155L69.456,24z"/>
</svg>