<svg xmlns="http://www.w3.org/2000/svg" xmlns:xlink="http://www.w3.org/1999/xlink" version="1.1" id="Layer_1" x="0px" y="0px" width="100.0px" height="100px" viewBox="-35 -35 115 115" enable-background="new -35 -35 115 115" xml:space="preserve">
<path d="M34.292,36.742c0-1.402-0.1-2.771-0.296-4.113l4.343-2.582l-0.091-0.412c-0.665-3.068-1.756-5.979-3.2-8.674l-0.21-0.391  l-4.84,1.109c-1.174-1.895-2.569-3.642-4.146-5.208l1.974-4.617l-0.305-0.268c-2.3-1.987-4.862-3.667-7.634-4.978l-0.39-0.18  l-3.272,3.741c-2.131-0.84-4.383-1.432-6.73-1.74L8.381,3.561L7.959,3.532c-0.735-0.05-1.483-0.085-2.237-0.085  c-2.327,0-4.597,0.244-6.792,0.697l-0.422,0.082l-0.449,4.981c-2.25,0.63-4.392,1.529-6.389,2.653l-3.736-3.272l-0.365,0.241  c-2.561,1.674-4.885,3.686-6.893,5.973l-0.274,0.316l2.581,4.322c-1.322,1.727-2.456,3.629-3.355,5.641l-4.937-0.445l-0.146,0.406  c-1.079,2.855-1.768,5.906-2.012,9.076l-0.032,0.404l4.649,1.988c-0.005,0.074-0.005,0.15-0.005,0.232  c0,1.975,0.211,3.914,0.592,5.775l-4.259,2.535l0.108,0.422c0.843,3.105,2.113,6.021,3.76,8.697l0.213,0.346l4.944-1.117  c1.079,1.488,2.292,2.883,3.636,4.145l-1.963,4.588l0.326,0.275c2.466,2.033,5.227,3.729,8.216,4.996l0.376,0.158l3.332-3.801  c1.623,0.564,3.337,0.98,5.083,1.238l1.112,4.887l0.428,0.029c0.866,0.072,1.761,0.123,2.673,0.123c2.385,0,4.71-0.26,6.956-0.736  l0.416-0.092l0.452-4.992c1.704-0.484,3.344-1.127,4.913-1.904l3.796,3.32l0.356-0.209c2.784-1.641,5.294-3.668,7.475-6.008  l0.301-0.312l-2.551-4.273c1.188-1.439,2.225-3.014,3.11-4.676l5.047,0.459l0.166-0.383c1.257-2.826,2.131-5.887,2.561-9.082  l0.051-0.438l-4.562-1.947C34.26,38.104,34.292,37.428,34.292,36.742z M14.48,36.742c0,4.84-3.92,8.758-8.757,8.764  c-4.843-0.006-8.756-3.924-8.763-8.764c0.007-4.838,3.918-8.748,8.763-8.762C10.561,27.994,14.48,31.904,14.48,36.742z"/>
<path d="M71.705-7.785l-0.102-0.37l-3.457-0.023c-0.485-1.429-1.142-2.804-1.927-4.08l2.074-2.829l-0.212-0.296  c-1.243-1.719-2.725-3.27-4.397-4.602l-0.301-0.242l-2.821,2.021c-1.271-0.89-2.681-1.624-4.174-2.206l0.019-3.476L56.054-24  c-0.502-0.147-0.996-0.291-1.519-0.417c-1.58-0.375-3.166-0.565-4.732-0.617l-0.384-0.005l-1.1,3.308  c-1.576,0.073-3.139,0.333-4.631,0.759l-2.011-2.818l-0.365,0.135c-2.015,0.724-3.919,1.723-5.661,2.967l-0.296,0.215l1.062,3.346  c-1.137,0.944-2.177,2.007-3.087,3.202l-3.286-1.093l-0.206,0.327c-1.189,1.771-2.151,3.733-2.826,5.849l-0.104,0.345l2.838,2.09  c-0.015,0.03-0.021,0.062-0.026,0.087c-0.318,1.33-0.48,2.648-0.526,3.957l-3.303,1.043l0.015,0.38  c0.083,2.253,0.478,4.449,1.169,6.534l0.115,0.346l3.538,0.023c0.48,1.148,1.059,2.246,1.742,3.294l-2.065,2.799l0.229,0.301  c1.361,1.779,2.958,3.382,4.795,4.712l0.296,0.215l2.861-2.044c0.984,0.617,2.038,1.149,3.143,1.59l-0.025,3.502l0.354,0.113  c0.589,0.183,1.19,0.358,1.805,0.506c1.629,0.381,3.252,0.583,4.86,0.616l0.372,0.007l1.102-3.315  c1.197-0.054,2.371-0.226,3.518-0.49l2.05,2.861l0.354-0.113c2.146-0.664,4.188-1.648,6.05-2.895l0.312-0.212l-1.042-3.308  c0.994-0.772,1.925-1.636,2.769-2.587l3.347,1.11l0.222-0.292c1.314-1.716,2.4-3.662,3.2-5.769l0.141-0.365l-2.786-2.046  c0.134-0.427,0.244-0.857,0.351-1.292c0.22-0.938,0.37-1.867,0.453-2.786l3.36-1.07v-0.364c0-0.133,0.009-0.265,0.009-0.404  C72.5-3.813,72.228-5.841,71.705-7.785z M55.198-1.74c0,0.46-0.048,0.919-0.159,1.384c-0.654,2.757-3.115,4.624-5.833,4.624  c-0.457,0-0.912-0.057-1.377-0.169c-2.764-0.639-4.617-3.105-4.617-5.825c0-0.452,0.047-0.911,0.152-1.377  c0.647-2.761,3.11-4.623,5.838-4.623c0.445,0,0.91,0.05,1.377,0.161C53.331-6.922,55.198-4.452,55.198-1.74z"/>
</svg>